<svg width="785" height="160" viewBox="0 0 785 160" fill="none" xmlns="http://www.w3.org/2000/svg">
<rect x="505.696" y="31.4888" width="18.0895" height="71.066" fill="black"/>
<path fill-rule="evenodd" clip-rule="evenodd" d="M5.65234 50.8622C5.8677 42.2481 12.3713 25.02 36.6629 25.02C42.4774 25.02 55.3985 26.5705 60.5669 32.7727C62.5051 30.1885 69.4825 25.02 81.8867 25.02C97.392 25.02 114.189 32.7727 114.189 50.8622H96.0999C95.8846 47.4166 92.8697 40.5253 82.5328 40.5253C72.1959 40.5253 69.181 47.4166 68.9656 50.8622H50.8761C50.4454 47.4166 46.9998 40.5253 36.6629 40.5253C26.3261 40.5253 23.7419 47.4166 23.7419 50.8622H5.65234ZM96.1016 50.8774H114.191V101.27H104.102C99.6833 101.27 96.1016 97.6879 96.1016 93.2697V50.8774ZM23.7419 50.8775H5.65234V101.27H23.7419V50.8775ZM68.9692 50.8775H50.8796V101.27H68.9692V50.8775Z" fill="black"/>
<path d="M152.939 112.899L121.929 26.3281H144.541L161.338 81.8888L152.939 112.899Z" fill="black"/>
<path fill-rule="evenodd" clip-rule="evenodd" d="M207.237 5.6499V19.8631H225.327V13.4026C225.327 7.20043 221.02 5.6499 218.866 5.6499H207.237ZM207.216 19.8731H225.305V81.894H225.309C225.309 86.0288 227.893 87.0625 229.185 87.0625H236.938V101.276H216.264C208.512 101.276 207.004 94.8151 207.219 91.5848V81.8943H207.216V19.8731Z" fill="black"/>
<path d="M225.316 26.3281H239.53V30.5413C239.53 36.0642 235.052 40.5413 229.53 40.5413H225.316V26.3281Z" fill="black"/>
<path d="M523.771 31.4888H537.985V35.702C537.985 41.2248 533.508 45.702 527.985 45.702H523.771V31.4888Z" fill="black"/>
<path fill-rule="evenodd" clip-rule="evenodd" d="M246.013 56.0404C246.231 46.133 256.225 26.3257 294.467 26.3257C291.452 29.3406 285.422 37.567 285.422 46.3534C278.315 46.138 264.102 47.7747 264.102 56.0442L264.102 101.264H246.013V56.0442V56.0404H246.013Z" fill="black"/>
<path fill-rule="evenodd" clip-rule="evenodd" d="M612.922 56.0442C613.137 46.138 623.13 26.3257 661.376 26.3257C658.361 29.3406 652.331 37.567 652.331 46.3534C645.226 46.138 631.016 47.7742 631.011 56.0405H631.011V101.264H612.922V56.0442H612.922Z" fill="black"/>
<path fill-rule="evenodd" clip-rule="evenodd" d="M293.782 45.6938H311.872C313.164 43.9709 317.298 40.5253 323.501 40.5253C331.253 40.5253 336.422 42.4635 336.422 46.9859C336.422 51.5082 327.377 55.3846 317.04 56.0306C306.703 56.6767 291.198 61.8451 291.198 77.9965C290.552 86.1798 296.108 102.547 323.501 102.547C333.837 102.116 354.511 96.6028 354.511 77.9965V43.1095C354.511 28.6379 335.56 25.02 326.085 25.02C299.726 25.02 293.567 38.8025 293.782 45.6938ZM336.413 63.7966V74.7795C336.413 78.8712 333.312 87.0545 320.908 87.0545C317.247 86.8392 309.925 84.9872 309.925 79.3019C309.925 72.1953 319.616 68.965 323.492 68.319C327.368 67.6729 333.183 66.3808 336.413 63.7966Z" fill="black"/>
<path fill-rule="evenodd" clip-rule="evenodd" d="M362.277 50.8617C362.493 42.2476 369.126 25.0195 393.934 25.0195C418.742 25.0195 425.375 42.2476 425.591 50.8617H407.501C407.286 47.4161 404.271 40.5248 393.934 40.5248C383.597 40.5248 380.582 47.4161 380.367 50.8617H362.277ZM362.277 50.8747H380.367V101.267H362.277V50.8747ZM407.505 50.8747H425.594V101.267H407.505V50.8747Z" fill="black"/>
<path d="M450.132 76.7039H432.043C432.043 85.1026 433.335 102.546 464.992 102.546C496.648 102.546 497.941 82.5184 497.941 77.996C497.941 73.4736 497.294 61.8446 475.329 56.6762C453.363 51.5078 452.717 49.5696 452.717 46.3393C452.717 43.1091 455.947 39.8788 464.992 39.8788C472.228 39.8788 477.051 46.3393 478.559 49.5696H496.002C496.002 32.7722 478.559 25.0195 464.992 25.0195C451.425 25.0195 433.335 30.188 433.335 49.5696C433.335 68.9512 461.115 72.1815 470.16 74.1197C477.396 75.6702 478.774 79.0727 478.559 80.5802C478.774 83.1644 476.362 88.3328 464.992 88.3328C453.621 88.3328 450.348 80.5802 450.132 76.7039Z" fill="black"/>
<path d="M673.668 76.7039H655.578C655.578 85.1026 656.87 102.546 688.527 102.546C720.184 102.546 721.476 82.5184 721.476 77.996C721.476 73.4736 720.83 61.8446 698.864 56.6762C676.898 51.5078 676.252 49.5696 676.252 46.3393C676.252 43.1091 679.482 39.8788 688.527 39.8788C695.763 39.8788 700.587 46.3393 702.094 49.5696H719.537C719.537 32.7722 702.094 25.0195 688.527 25.0195C674.96 25.0195 656.87 30.188 656.87 49.5696C656.87 68.9512 684.651 72.1815 693.695 74.1197C700.931 75.6702 702.309 79.0727 702.094 80.5802C702.309 83.1644 699.897 88.3328 688.527 88.3328C677.156 88.3328 673.883 80.5802 673.668 76.7039Z" fill="black"/>
<path d="M535.415 5H523.786C509.573 5 505.829 16.2169 505.7 22.1262L505.696 31.4882H523.786C523.786 22.185 531.538 20.7207 535.415 21.1514V5Z" fill="black"/>
<path fill-rule="evenodd" clip-rule="evenodd" d="M538.08 61.8498C537.218 75.417 542.344 102.551 569.736 102.551C597.129 102.551 604.839 86.6152 605.27 78.6472H587.18C584.811 81.4468 578.523 87.046 572.321 87.046C564.568 87.046 557.462 79.2933 557.462 69.6025H606.562C607.854 54.7432 603.073 25.0247 573.613 25.0247C561.769 24.8094 538.08 31.8729 538.08 61.8498ZM557.446 56.0378H585.872C585.872 51.0847 583.159 41.1785 572.305 41.1785C561.452 41.1785 557.877 51.0847 557.446 56.0378Z" fill="black"/>
<path d="M757.013 63.7828L726.648 102.546H749.26L779.625 63.7828L749.26 25.0195H726.648L757.013 63.7828Z" fill="black"/>
<rect x="204.639" y="124.513" width="184.772" height="3.87633" rx="1.93816" fill="black"/>
<path d="M461.175 154.671H458.222L455.406 144.768C455.285 144.337 455.134 143.716 454.952 142.906C454.77 142.088 454.66 141.52 454.622 141.202C454.547 141.687 454.422 142.315 454.248 143.087C454.081 143.86 453.941 144.435 453.828 144.814L451.079 154.671H448.127L445.98 146.358L443.8 138.068H446.571L448.944 147.744C449.315 149.296 449.58 150.666 449.739 151.855C449.822 151.211 449.947 150.492 450.114 149.697C450.281 148.902 450.432 148.258 450.568 147.766L453.271 138.068H455.963L458.733 147.812C458.998 148.713 459.279 150.06 459.574 151.855C459.687 150.772 459.96 149.394 460.392 147.721L462.754 138.068H465.502L461.175 154.671Z" fill="black"/>
<path d="M477.256 154.671H467.864V138.068H477.256V140.362H470.578V144.882H476.836V147.153H470.578V152.366H477.256V154.671Z" fill="black"/>
<path d="M500.4 146.21C500.4 148.951 499.639 151.048 498.118 152.502C496.596 153.948 494.404 154.671 491.542 154.671H486.897V138.068H492.031C494.673 138.068 496.728 138.78 498.197 140.203C499.666 141.626 500.4 143.629 500.4 146.21ZM497.538 146.301C497.538 142.327 495.68 140.339 491.962 140.339H489.612V152.388H491.542C495.54 152.388 497.538 150.359 497.538 146.301Z" fill="black"/>
<path d="M506.692 145.79H508.577C509.841 145.79 510.757 145.556 511.325 145.086C511.893 144.617 512.177 143.92 512.177 142.997C512.177 142.058 511.87 141.384 511.257 140.975C510.644 140.566 509.72 140.362 508.486 140.362H506.692V145.79ZM506.692 148.039V154.671H503.977V138.068H508.668C510.81 138.068 512.396 138.469 513.426 139.272C514.456 140.074 514.97 141.286 514.97 142.906C514.97 144.973 513.895 146.445 511.745 147.323L516.435 154.671H513.347L509.372 148.039H506.692Z" fill="black"/>
<path d="M518.854 154.671V138.068H521.569V154.671H518.854Z" fill="black"/>
<path d="M535.423 138.068H538.24L532.425 154.671H529.563L523.772 138.068H526.565L530.029 148.391C530.211 148.883 530.404 149.519 530.608 150.299C530.813 151.071 530.945 151.646 531.006 152.025C531.104 151.45 531.256 150.783 531.46 150.026C531.664 149.269 531.831 148.709 531.96 148.345L535.423 138.068Z" fill="black"/>
<path d="M549.823 154.671H540.432V138.068H549.823V140.362H543.146V144.882H549.403V147.153H543.146V152.366H549.823V154.671Z" fill="black"/>
<path d="M689.508 149.629H687.531L686.941 138.068H690.087L689.508 149.629ZM686.805 153.251C686.805 152.691 686.952 152.267 687.248 151.979C687.543 151.684 687.963 151.537 688.508 151.537C689.046 151.537 689.458 151.688 689.746 151.991C690.034 152.294 690.178 152.714 690.178 153.251C690.178 153.789 690.03 154.217 689.735 154.535C689.447 154.845 689.038 155 688.508 155C687.971 155 687.55 154.849 687.248 154.546C686.952 154.243 686.805 153.812 686.805 153.251Z" fill="black"/>
<path d="M564.259 145.649L568.188 138.075H571.141L565.61 148.239V154.678H562.885V148.33L557.377 138.075H560.33L564.259 145.649Z" fill="black"/>
<path d="M588.073 146.354C588.073 149.056 587.396 151.157 586.041 152.656C584.693 154.155 582.781 154.905 580.306 154.905C577.8 154.905 575.873 154.163 574.525 152.679C573.185 151.188 572.515 149.071 572.515 146.331C572.515 143.59 573.189 141.485 574.537 140.017C575.892 138.548 577.822 137.813 580.328 137.813C582.796 137.813 584.704 138.559 586.052 140.051C587.4 141.542 588.073 143.643 588.073 146.354ZM575.4 146.354C575.4 148.398 575.812 149.95 576.637 151.01C577.463 152.062 578.685 152.588 580.306 152.588C581.918 152.588 583.133 152.066 583.951 151.021C584.776 149.976 585.189 148.42 585.189 146.354C585.189 144.317 584.78 142.772 583.962 141.72C583.152 140.668 581.941 140.142 580.328 140.142C578.701 140.142 577.47 140.668 576.637 141.72C575.812 142.772 575.4 144.317 575.4 146.354Z" fill="black"/>
<path d="M604.654 138.075V148.818C604.654 150.044 604.389 151.119 603.859 152.043C603.336 152.959 602.576 153.667 601.576 154.167C600.584 154.659 599.396 154.905 598.01 154.905C595.951 154.905 594.35 154.36 593.206 153.27C592.063 152.179 591.492 150.68 591.492 148.772V138.075H594.217V148.579C594.217 149.95 594.535 150.96 595.171 151.612C595.807 152.263 596.784 152.588 598.101 152.588C600.66 152.588 601.94 151.244 601.94 148.557V138.075H604.654Z" fill="black"/>
<path d="M620.678 154.678H617.963V140.403H613.08V138.075H625.561V140.403H620.678V154.678Z" fill="black"/>
<path d="M641.21 154.678H638.485V147.194H630.83V154.678H628.116V138.075H630.83V144.866H638.485V138.075H641.21V154.678Z" fill="black"/>
<path d="M654.974 154.678H645.582V138.075H654.974V140.369H648.296V144.889H654.554V147.16H648.296V152.372H654.974V154.678Z" fill="black"/>
<path d="M661.288 145.797H663.173C664.438 145.797 665.354 145.562 665.922 145.093C666.489 144.624 666.773 143.927 666.773 143.003C666.773 142.065 666.467 141.391 665.853 140.982C665.24 140.573 664.317 140.369 663.083 140.369H661.288V145.797ZM661.288 148.046V154.678H658.574V138.075H663.264C665.407 138.075 666.993 138.476 668.023 139.278C669.052 140.081 669.567 141.292 669.567 142.913C669.567 144.979 668.492 146.452 666.342 147.33L671.032 154.678H667.943L663.968 148.046H661.288Z" fill="black"/>
<path d="M682.843 154.678H673.451V138.075H682.843V140.369H676.165V144.889H682.423V147.16H676.165V152.372H682.843V154.678Z" fill="black"/>
<path d="M5 120.634H141.317V138.724H18.5671L5 120.634Z" fill="black"/>
<path d="M181.375 26.3281H198.172C189.773 50.2321 171.555 102.304 165.869 119.36C160.184 136.416 147.134 139.388 141.319 138.742V120.652C147.521 120.652 151.226 112.899 152.302 109.023C158.547 88.3493 171.555 44.9345 173.622 36.665C175.689 28.3955 179.652 26.3281 181.375 26.3281Z" fill="black"/>
</svg>
